<mxfile host="65bd71144e">
    <diagram name="Page-1" id="CxMjXohG39OwKz9XCY3l">
        <mxGraphModel dx="491" dy="382" grid="0" gridSize="10" guides="0" tooltips="1" connect="1" arrows="1" fold="1" page="0" pageScale="1" pageWidth="827" pageHeight="1169" math="0" shadow="0">
            <root>
                <mxCell id="0"/>
                <mxCell id="1" parent="0"/>
                <mxCell id="jzUpsuWwS9KQOFgG_sLY-3" style="edgeStyle=orthogonalEdgeStyle;rounded=0;orthogonalLoop=1;jettySize=auto;html=1;entryX=0;entryY=0.5;entryDx=0;entryDy=0;" parent="1" source="jzUpsuWwS9KQOFgG_sLY-1" target="jzUpsuWwS9KQOFgG_sLY-2" edge="1">
                    <mxGeometry relative="1" as="geometry"/>
                </mxCell>
                <mxCell id="jzUpsuWwS9KQOFgG_sLY-1" value="Utilisateur" style="shape=umlActor;verticalLabelPosition=bottom;verticalAlign=top;html=1;outlineConnect=0;" parent="1" vertex="1">
                    <mxGeometry x="50" y="120" width="30" height="60" as="geometry"/>
                </mxCell>
                <mxCell id="jzUpsuWwS9KQOFgG_sLY-2" value="&lt;div&gt;Visualiser un&amp;nbsp;&lt;span style=&quot;background-color: initial;&quot;&gt;fichier&lt;/span&gt;&lt;/div&gt;" style="ellipse;whiteSpace=wrap;html=1;" parent="1" vertex="1">
                    <mxGeometry x="130" y="130" width="160" height="40" as="geometry"/>
                </mxCell>
                <mxCell id="jzUpsuWwS9KQOFgG_sLY-4" value="&lt;div&gt;Signer un&amp;nbsp;&lt;span style=&quot;background-color: initial;&quot;&gt;fichier&lt;/span&gt;&lt;/div&gt;" style="ellipse;whiteSpace=wrap;html=1;" parent="1" vertex="1">
                    <mxGeometry x="369" y="223" width="160" height="40" as="geometry"/>
                </mxCell>
                <mxCell id="jzUpsuWwS9KQOFgG_sLY-5" value="Extends" style="endArrow=open;endSize=16;endFill=0;html=1;rounded=0;exitX=0;exitY=0.5;exitDx=0;exitDy=0;entryX=1;entryY=0.5;entryDx=0;entryDy=0;edgeStyle=orthogonalEdgeStyle;dashed=1;" parent="1" source="jzUpsuWwS9KQOFgG_sLY-4" target="jzUpsuWwS9KQOFgG_sLY-2" edge="1">
                    <mxGeometry x="-0.3333" width="160" relative="1" as="geometry">
                        <mxPoint x="300" y="160" as="sourcePoint"/>
                        <mxPoint x="460" y="160" as="targetPoint"/>
                        <mxPoint as="offset"/>
                        <Array as="points">
                            <mxPoint x="329" y="243"/>
                            <mxPoint x="329" y="150"/>
                        </Array>
                    </mxGeometry>
                </mxCell>
                <mxCell id="jzUpsuWwS9KQOFgG_sLY-6" value="&lt;div&gt;Signer un&amp;nbsp;&lt;span style=&quot;background-color: initial;&quot;&gt;fichier&amp;nbsp;&lt;/span&gt;avec&lt;/div&gt;&lt;div&gt;image&lt;/div&gt;" style="ellipse;whiteSpace=wrap;html=1;" parent="1" vertex="1">
                    <mxGeometry x="621" y="122" width="160" height="40" as="geometry"/>
                </mxCell>
                <mxCell id="jzUpsuWwS9KQOFgG_sLY-7" value="&lt;div&gt;Signer un&amp;nbsp;&lt;span style=&quot;background-color: initial;&quot;&gt;fichier a main&lt;/span&gt;&lt;/div&gt;" style="ellipse;whiteSpace=wrap;html=1;" parent="1" vertex="1">
                    <mxGeometry x="621" y="172" width="160" height="40" as="geometry"/>
                </mxCell>
                <mxCell id="jzUpsuWwS9KQOFgG_sLY-8" value="Extends" style="endArrow=open;endSize=16;endFill=0;html=1;rounded=0;exitX=0;exitY=0.5;exitDx=0;exitDy=0;entryX=1;entryY=0.5;entryDx=0;entryDy=0;edgeStyle=orthogonalEdgeStyle;fontSize=7;dashed=1;" parent="1" source="jzUpsuWwS9KQOFgG_sLY-6" target="jzUpsuWwS9KQOFgG_sLY-4" edge="1">
                    <mxGeometry x="-0.7778" width="160" relative="1" as="geometry">
                        <mxPoint x="544" y="140" as="sourcePoint"/>
                        <mxPoint x="450" y="210" as="targetPoint"/>
                        <mxPoint as="offset"/>
                    </mxGeometry>
                </mxCell>
                <mxCell id="jzUpsuWwS9KQOFgG_sLY-9" value="Extends" style="endArrow=none;endSize=16;endFill=0;html=1;rounded=0;exitX=0;exitY=0.5;exitDx=0;exitDy=0;edgeStyle=orthogonalEdgeStyle;fontSize=7;dashed=1;" parent="1" source="jzUpsuWwS9KQOFgG_sLY-7" edge="1">
                    <mxGeometry x="-0.1739" width="160" relative="1" as="geometry">
                        <mxPoint x="580" y="50" as="sourcePoint"/>
                        <mxPoint x="575" y="192" as="targetPoint"/>
                        <mxPoint as="offset"/>
                    </mxGeometry>
                </mxCell>
                <mxCell id="jzUpsuWwS9KQOFgG_sLY-10" value="&lt;div&gt;Deplacer la signature&lt;/div&gt;" style="ellipse;whiteSpace=wrap;html=1;" parent="1" vertex="1">
                    <mxGeometry x="621" y="222" width="160" height="40" as="geometry"/>
                </mxCell>
                <mxCell id="jzUpsuWwS9KQOFgG_sLY-11" value="Extends" style="endArrow=none;endSize=16;endFill=0;html=1;rounded=0;exitX=0;exitY=0.5;exitDx=0;exitDy=0;edgeStyle=orthogonalEdgeStyle;fontSize=7;dashed=1;" parent="1" source="jzUpsuWwS9KQOFgG_sLY-10" edge="1">
                    <mxGeometry x="0.0208" y="2" width="160" relative="1" as="geometry">
                        <mxPoint x="580" y="130" as="sourcePoint"/>
                        <mxPoint x="574" y="243" as="targetPoint"/>
                        <mxPoint x="2" y="-1" as="offset"/>
                    </mxGeometry>
                </mxCell>
                <mxCell id="jzUpsuWwS9KQOFgG_sLY-12" value="&lt;div&gt;Confirmer la signature&lt;/div&gt;" style="ellipse;whiteSpace=wrap;html=1;" parent="1" vertex="1">
                    <mxGeometry x="621" y="272" width="160" height="40" as="geometry"/>
                </mxCell>
                <mxCell id="jzUpsuWwS9KQOFgG_sLY-13" value="&lt;div&gt;Annuler la signature&lt;/div&gt;" style="ellipse;whiteSpace=wrap;html=1;" parent="1" vertex="1">
                    <mxGeometry x="621" y="322" width="160" height="40" as="geometry"/>
                </mxCell>
                <mxCell id="jzUpsuWwS9KQOFgG_sLY-14" value="Extends" style="endArrow=none;endSize=16;endFill=0;html=1;rounded=0;exitX=0;exitY=0.5;exitDx=0;exitDy=0;edgeStyle=orthogonalEdgeStyle;fontSize=7;dashed=1;" parent="1" source="jzUpsuWwS9KQOFgG_sLY-12" edge="1">
                    <mxGeometry x="-0.234" y="4" width="160" relative="1" as="geometry">
                        <mxPoint x="580" y="190" as="sourcePoint"/>
                        <mxPoint x="574" y="292" as="targetPoint"/>
                        <mxPoint as="offset"/>
                    </mxGeometry>
                </mxCell>
                <mxCell id="jzUpsuWwS9KQOFgG_sLY-15" value="Extends" style="endArrow=open;endSize=16;endFill=0;html=1;rounded=0;exitX=0;exitY=0.5;exitDx=0;exitDy=0;edgeStyle=orthogonalEdgeStyle;fontSize=7;entryX=1;entryY=0.5;entryDx=0;entryDy=0;dashed=1;" parent="1" source="jzUpsuWwS9KQOFgG_sLY-13" target="jzUpsuWwS9KQOFgG_sLY-4" edge="1">
                    <mxGeometry x="-0.8621" width="160" relative="1" as="geometry">
                        <mxPoint x="580" y="250" as="sourcePoint"/>
                        <mxPoint x="500" y="80" as="targetPoint"/>
                        <mxPoint as="offset"/>
                    </mxGeometry>
                </mxCell>
                <mxCell id="2" value="&lt;div&gt;Télécharger un fichier&lt;/div&gt;" style="ellipse;whiteSpace=wrap;html=1;" parent="1" vertex="1">
                    <mxGeometry x="371" y="45" width="160" height="40" as="geometry"/>
                </mxCell>
                <mxCell id="4" value="Extends" style="endArrow=open;endSize=16;endFill=0;html=1;edgeStyle=orthogonalEdgeStyle;entryX=1;entryY=0.5;entryDx=0;entryDy=0;rounded=0;dashed=1;" parent="1" source="2" target="jzUpsuWwS9KQOFgG_sLY-2" edge="1">
                    <mxGeometry width="160" relative="1" as="geometry">
                        <mxPoint x="324" y="171" as="sourcePoint"/>
                        <mxPoint x="484" y="171" as="targetPoint"/>
                        <Array as="points">
                            <mxPoint x="329" y="64"/>
                            <mxPoint x="329" y="150"/>
                        </Array>
                    </mxGeometry>
                </mxCell>
            </root>
        </mxGraphModel>
    </diagram>
</mxfile>